<svg viewBox="0 0 240 80" xmlns="http://www.w3.org/2000/svg"><path d="m58 79v-6.32h.94v6.32z"/><path d="m66.94 72.68v6.32h-1.14l-4.36-6.36h1.14l3.42 5.1v-5.06zm-5.5 3.54h1v2.78h-1z"/><path d="m73.71 72.68v.78h-4.22v-.78zm-.59 2.76v.78h-2.69v2.78h-.94v-3.6z"/><path d="m76.26 79v-6.32h.94v6.32z"/><path d="m85.24 72.68v6.32h-1.13l-4.37-6.36h1.14l3.42 5.06v-5.02zm-5.5 3.54h1v2.78h-1z"/><path d="m87.79 79v-6.32h.94v6.32z"/><path d="m92.22 73.46v5.54h-1v-6.32h2.91v.78z"/><path d="m101 72.68v.78h-4.27v-.78zm-.6 3.45h-3.67v-.79h3.63zm-3.63 2.13h4.23v.74h-4.27z"/><path d="m111.24 76.58a1.58 1.58 0 0 0 0-3.12h-2.46v-.78h2.48a2.34 2.34 0 0 1 0 4.68h-1.53v1.64h-1v-2.42z"/><path d="m119.28 79a3.27 3.27 0 1 1 3.23-3.27 3.23 3.23 0 0 1 -3.23 3.27zm0-.78a2.49 2.49 0 1 0 -2.28-2.45 2.39 2.39 0 0 0 2.28 2.49z"/><path d="m129.45 77.86a2.33 2.33 0 0 1 -2.23 1.14v-.78a1.33 1.33 0 0 0 1.34-.7 1 1 0 0 0 0-.67c-.18-.49-.67-.6-1.37-.81s-1.69-.43-2-1.27a1.65 1.65 0 0 1 .1-1.34 2.21 2.21 0 0 1 1.89-1 3.13 3.13 0 0 1 2.36 1.06l-.62.62a2.15 2.15 0 0 0 -1.74-.9 1.26 1.26 0 0 0 -1 .54.93.93 0 0 0 -.06.71c.17.47.65.58 1.33.78s1.72.44 2 1.29a1.77 1.77 0 0 1 0 1.33z"/><path d="m136.64 77.86a2.31 2.31 0 0 1 -2.23 1.14v-.78a1.33 1.33 0 0 0 1.35-.7 1 1 0 0 0 0-.67c-.17-.49-.67-.6-1.36-.81s-1.7-.43-2-1.27a1.66 1.66 0 0 1 .11-1.34 2.2 2.2 0 0 1 1.89-1 3.16 3.16 0 0 1 2.36 1.06l-.62.62a2.18 2.18 0 0 0 -1.74-.9 1.27 1.27 0 0 0 -1 .54.92.92 0 0 0 -.05.71c.17.47.65.58 1.33.78s1.71.44 2 1.29a1.71 1.71 0 0 1 -.04 1.33z"/><path d="m139.45 79v-6.32h.94v6.32z"/><path d="m145.45 75.14c.32 0 .57-.41.57-.85s-.27-.83-.6-.83h-2.52v-.78h2.52a1.58 1.58 0 0 1 1.58 1.61 1.67 1.67 0 0 1 -.49 1.18 2 2 0 0 1 .83 1.62 1.91 1.91 0 0 1 -1.89 2h-2.52v-.78h2.52a1.2 1.2 0 0 0 .05-2.34h-2.57v-.78z"/><path d="m149.89 79v-6.32h1v6.32z"/><path d="m157.53 79h-4.15v-6.32h.94v5.58h3.21z"/><path d="m160.08 79v-6.32h.92v6.32z"/><path d="m164.51 73.46v5.54h-.95v-6.32h2.91v.78z"/><path d="m169 79v-6.32h1v6.32z"/><path d="m176.74 72.68v.78h-4.24v-.78zm-.6 3.45h-3.64v-.79h3.64zm-3.64 2.13h4.24v.74h-4.24z"/><path d="m183.67 77.86a2.31 2.31 0 0 1 -2.23 1.14v-.78a1.33 1.33 0 0 0 1.35-.7 1.12 1.12 0 0 0 0-.67c-.18-.49-.67-.6-1.37-.81s-1.7-.43-2-1.27a1.61 1.61 0 0 1 .1-1.34 2.21 2.21 0 0 1 1.89-1 3.16 3.16 0 0 1 2.36 1.06l-.62.62a2.18 2.18 0 0 0 -1.74-.9 1.24 1.24 0 0 0 -1 .54.93.93 0 0 0 -.06.71c.17.47.65.58 1.33.78s1.71.44 2 1.29a1.8 1.8 0 0 1 -.01 1.33z"/><path d="m22.28 29.7 1.27 4a18.1 18.1 0 0 1 -6.71 1.23 16.76 16.76 0 0 1 -16.84-17 16.75 16.75 0 0 1 16.84-16.93 18 18 0 0 1 7 1.34l-1.98 3.66a12.55 12.55 0 0 0 -5-1c-6.86 0-11.96 6.12-11.96 12.93 0 6.23 4.6 13 11.94 13a13.22 13.22 0 0 0 5.44-1.23z"/><path d="m53.88 34.94a16.79 16.79 0 0 1 -16.88-17.01 16.84 16.84 0 1 1 33.68 0 16.79 16.79 0 0 1 -16.8 17.01zm0-4.06c7 0 11.93-6.19 11.93-12.95s-4.95-12.93-11.93-12.93-11.88 6.21-11.88 12.93 4.9 12.95 11.88 12.95z"/><path d="m106.82 28.8c-1.59 3.75-6 6.09-11.61 6.14v-4.06c3.84-.05 6.08-1.46 7-3.67a5.09 5.09 0 0 0 .09-3.45c-.93-2.56-3.49-3.13-7.11-4.24-4.11-1.24-8.84-2.25-10.39-6.58a8.59 8.59 0 0 1 .53-7c2.56-4.86 9.1-5 9.86-5a16.5 16.5 0 0 1 12.28 5.52l-3.23 3.23a11.32 11.32 0 0 0 -9.04-4.69s-3.94 0-5.44 2.82a5 5 0 0 0 -.31 3.72c.88 2.43 3.4 3 6.94 4.06 4.2 1.28 8.92 2.26 10.6 6.72a8.93 8.93 0 0 1 -.17 6.48z"/><path d="m156.27 1.8v33.14h-4.9v-24.88l-11.13 24.88h-2.78l-16-33.14h5.92l11.48 25.08 10.9-25.08zm-34.84 18.2h4.95v14.94h-4.95z"/><path d="m186.37 34.94a16.79 16.79 0 0 1 -16.84-17 16.84 16.84 0 1 1 33.68 0 16.79 16.79 0 0 1 -16.84 17zm0-4.06c7 0 11.93-6.19 11.93-12.95s-4.95-12.93-11.93-12.93-11.93 6.19-11.93 12.91 4.95 12.97 11.93 12.97z"/><path d="m217.49 7.1c1.59-3.75 6-6.09 11.6-6.14v4.04c-3.83 0-6.08 1.46-7 3.66a5.15 5.15 0 0 0 -.09 3.45c.93 2.56 3.49 3.14 7.12 4.24 4.11 1.24 8.84 2.26 10.38 6.59a8.56 8.56 0 0 1 -.53 7c-2.56 4.86-9.1 5-9.85 5a16.54 16.54 0 0 1 -12.29-5.52l3.23-3.23a11.35 11.35 0 0 0 9.06 4.69s3.93 0 5.43-2.83a4.9 4.9 0 0 0 .31-3.71c-.88-2.43-3.4-3-6.94-4.07-4.2-1.27-8.92-2.27-10.61-6.72a9 9 0 0 1 .18-6.45z"/><path d="m39.27 54.14h1.3v-2.94h3.21v-1.21h-3.21v-1.94h3.56l.02-1.21h-4.88z"/><path d="m57.81 46.84h1.3v7.3h-1.3z"/><path d="m74.95 46.84h-1.31v7.3h4.34v-1.22h-3.03z"/><path d="m95.59 51.52-2.43-4.68h-1.41v7.3h1.23v-5.01l2.21 4.27h.8l2.19-4.26.01 5h1.24v-7.3h-1.42z"/><path d="m120.67 52.35-1.71-5.51h-1.21l-1.7 5.51-1.7-5.51h-1.4l2.46 7.3h1.24l1.7-5.33 1.67 5.33h1.24l2.47-7.3h-1.36z"/><path d="m142.24 47.27a4 4 0 0 0 -3.85 0 3.65 3.65 0 0 0 -1.39 1.34 3.55 3.55 0 0 0 -.51 1.87 3.61 3.61 0 0 0 .51 1.88 3.68 3.68 0 0 0 1.39 1.35 3.86 3.86 0 0 0 1.93.5 3.91 3.91 0 0 0 1.93-.5 3.73 3.73 0 0 0 1.9-3.23 3.56 3.56 0 0 0 -.52-1.87 3.51 3.51 0 0 0 -1.39-1.34zm.25 4.47a2.7 2.7 0 0 1 -.92.92 2.53 2.53 0 0 1 -3.42-.92 2.42 2.42 0 0 1 -.35-1.26 2.39 2.39 0 0 1 .35-1.26 2.56 2.56 0 0 1 .92-.9 2.53 2.53 0 0 1 1.26-.34 2.47 2.47 0 0 1 1.25.34 2.61 2.61 0 0 1 .91.9 2.47 2.47 0 0 1 .33 1.26 2.5 2.5 0 0 1 -.33 1.26z"/><path d="m163.47 50.88a2.68 2.68 0 0 0 .42-1.52 2.32 2.32 0 0 0 -.78-1.87 3.25 3.25 0 0 0 -2.15-.65h-2.89v7.3h1.3v-2.14h1.89l1.37 2.18h1.52l-1.68-2.45a2.29 2.29 0 0 0 1-.85zm-2.47-.12h-1.59v-2.71h1.59a2 2 0 0 1 1.26.35 1.16 1.16 0 0 1 .41 1 1.22 1.22 0 0 1 -.41 1 2 2 0 0 1 -1.26.36z"/><path d="m184.36 46.84h-1.61l-3.31 3.62v-3.62h-1.3v7.3h1.3v-1.93l1.1-1.18 2.36 3.11h1.59l-3.05-4.12z"/><path d="m202.66 50.9a2.18 2.18 0 0 0 -.81-.64 10.37 10.37 0 0 0 -1.16-.42c-.37-.12-.67-.23-.87-.31a1.37 1.37 0 0 1 -.48-.33.69.69 0 0 1 -.17-.48.55.55 0 0 1 .28-.49 2.25 2.25 0 0 1 1.79-.06 4.14 4.14 0 0 1 1 .44l.17.11.54-1.17-.12-.08a4.27 4.27 0 0 0 -1.12-.52 4.54 4.54 0 0 0 -1.27-.19 3.59 3.59 0 0 0 -1.44.24 2.22 2.22 0 0 0 -.94.72 1.85 1.85 0 0 0 -.34 1.08 1.83 1.83 0 0 0 .34 1.13 2.1 2.1 0 0 0 .81.64 9.64 9.64 0 0 0 1.15.41c.37.12.67.22.88.31a1.32 1.32 0 0 1 .49.33.73.73 0 0 1 .17.49.69.69 0 0 1 -.32.59 1.8 1.8 0 0 1 -1 .24 2.83 2.83 0 0 1 -1.14-.25 3.24 3.24 0 0 1 -1.06-.71l-.17-.16-.6 1.15.1.09a4.32 4.32 0 0 0 1.3.83 4.21 4.21 0 0 0 1.56.31 3.64 3.64 0 0 0 1.4-.26 2.21 2.21 0 0 0 1-.75 2 2 0 0 0 .35-1.14 1.81 1.81 0 0 0 -.32-1.15z"/><path d="m239.82 64.15h-239.64a.18.18 0 0 1 -.18-.15.18.18 0 0 1 .18-.17h239.64a.18.18 0 0 1 .18.17.18.18 0 0 1 -.18.15z"/></svg>