<svg id="Layer_1" data-name="Layer 1" xmlns="http://www.w3.org/2000/svg" viewBox="0 0 125.85 6.53"><title>slogan_black</title><path d="M0,6.53V.16H.94V6.53Z"/><path d="M9,.16V6.53H7.85L3.48.16H4.62L8,5.23V.16ZM3.48,3.7h.95V6.53H3.48Z"/><path d="M15.76.16V.94H11.53V.16Zm-.6,2.77v.78H12.47V6.53h-.94V2.93Z"/><path d="M18.3,6.53V.16h.94V6.53Z"/><path d="M27.29.16V6.53H26.15L21.79.16h1.14l3.41,5.07V.16ZM21.79,3.7h.95V6.53h-.95Z"/><path d="M29.83,6.53V.16h1V6.53Z"/><path d="M34.26.94V6.53h-.94V.16h2.91V.94Z"/><path d="M43,.16V.94H38.77V.16Zm-.6,3.46H38.77V2.83h3.64ZM38.77,5.75H43v.78H38.77Z"/><path d="M53.28,4.06A1.46,1.46,0,0,0,54.6,2.5,1.46,1.46,0,0,0,53.28.94H50.82V.16H53.3A2.3,2.3,0,0,1,55.54,2.5,2.31,2.31,0,0,1,53.3,4.85H51.77V6.53h-1V4.06Z"/><path d="M61.32,6.53a3.22,3.22,0,0,1-3.23-3.27,3.24,3.24,0,1,1,6.47,0A3.23,3.23,0,0,1,61.32,6.53Zm0-.79a2.38,2.38,0,0,0,2.29-2.48,2.3,2.3,0,1,0-4.58,0A2.38,2.38,0,0,0,61.32,5.74Z"/><path d="M71.49,5.35a2.32,2.32,0,0,1-2.23,1.18V5.74A1.32,1.32,0,0,0,70.61,5a1,1,0,0,0,0-.66c-.17-.49-.67-.6-1.36-.82s-1.7-.43-2-1.26A1.62,1.62,0,0,1,67.37,1a2.22,2.22,0,0,1,1.89-1,3.2,3.2,0,0,1,2.36,1.06L71,1.68a2.18,2.18,0,0,0-1.74-.9,1.27,1.27,0,0,0-1.05.54,1,1,0,0,0-.06.72c.17.46.66.57,1.34.78s1.71.43,2,1.29A1.71,1.71,0,0,1,71.49,5.35Z"/><path d="M78.68,5.35a2.31,2.31,0,0,1-2.22,1.18V5.74A1.31,1.31,0,0,0,77.8,5a.94.94,0,0,0,0-.66c-.18-.49-.67-.6-1.37-.82s-1.69-.43-2-1.26A1.65,1.65,0,0,1,74.56,1a2.23,2.23,0,0,1,1.89-1,3.17,3.17,0,0,1,2.36,1.06l-.62.62a2.17,2.17,0,0,0-1.74-.9,1.25,1.25,0,0,0-1,.54,1,1,0,0,0-.06.72c.17.46.65.57,1.33.78s1.72.43,2,1.29A1.73,1.73,0,0,1,78.68,5.35Z"/><path d="M81.49,6.53V.16h.94V6.53Z"/><path d="M87.5,2.62h0c.32,0,.58-.41.58-.85s-.27-.83-.6-.83H85V.16H87.5A1.58,1.58,0,0,1,89,1.77,1.69,1.69,0,0,1,88.56,3a2,2,0,0,1,.83,1.62,1.93,1.93,0,0,1-1.89,2H85V5.74H87.5a1.08,1.08,0,0,0,1-1.17,1.1,1.1,0,0,0-.91-1.17H85V2.62Z"/><path d="M91.94,6.53V.16h.94V6.53Z"/><path d="M99.57,6.53H95.42V.16h1V5.74h3.2Z"/><path d="M102.12,6.53V.16h.94V6.53Z"/><path d="M106.55.94V6.53h-.94V.16h2.91V.94Z"/><path d="M111.06,6.53V.16h1V6.53Z"/><path d="M118.78.16V.94h-4.23V.16Zm-.6,3.46h-3.63V2.83h3.63Zm-3.63,2.13h4.23v.78h-4.23Z"/><path d="M125.72,5.35a2.33,2.33,0,0,1-2.23,1.18V5.74a1.31,1.31,0,0,0,1.34-.7.94.94,0,0,0,0-.66c-.18-.49-.67-.6-1.37-.82s-1.69-.43-2-1.26a1.65,1.65,0,0,1,.1-1.34,2.23,2.23,0,0,1,1.89-1,3.17,3.17,0,0,1,2.36,1.06l-.62.62a2.15,2.15,0,0,0-1.74-.9,1.26,1.26,0,0,0-1,.54,1,1,0,0,0-.06.72c.17.46.65.57,1.33.78s1.72.43,2,1.29A1.77,1.77,0,0,1,125.72,5.35Z"/></svg>