<svg id="Layer_1" data-name="Layer 1" xmlns="http://www.w3.org/2000/svg" viewBox="0 0 64 64"><defs><style>.cls-1{fill:#231f20;}</style></defs><g id="Group_14" data-name="Group 14"><g id="Path_39" data-name="Path 39"><path class="cls-1" d="M32,3.56A10.08,10.08,0,0,0,21.92,13.64c0,5.57,8.91,12.51,10.08,12.51s10.09-6.94,10.09-12.51A10.08,10.08,0,0,0,32,3.56M32,0A13.66,13.66,0,0,1,45.64,13.64c0,4.2-3,8.21-5.61,10.83a32.93,32.93,0,0,1-3.85,3.37C34.08,29.39,33,29.71,32,29.71s-2.08-.32-4.18-1.87A32.86,32.86,0,0,1,24,24.47c-2.57-2.62-5.62-6.63-5.62-10.83A13.66,13.66,0,0,1,32,0Z"/></g><g id="Path_38" data-name="Path 38"><path class="cls-1" d="M32,36.56c-9.68,0-17.53,7-17.53,15.59,0,8,14,8.29,17.45,8.29H33c3.32,0,16.49-.27,16.49-8.29,0-8.61-7.85-15.59-17.53-15.59M32,33a22.16,22.16,0,0,1,14.76,5.46,19.3,19.3,0,0,1,4.6,6.08,17.63,17.63,0,0,1,1.72,7.6c0,2.91-1.24,8.17-9.56,10.57A38.62,38.62,0,0,1,33,64H31.92A43,43,0,0,1,21,62.74a17.18,17.18,0,0,1-6.56-3.19,9.47,9.47,0,0,1-3.5-7.4,17.63,17.63,0,0,1,1.72-7.6,19.3,19.3,0,0,1,4.6-6.08A22.16,22.16,0,0,1,32,33Z"/></g></g></svg>