<?xml version="1.0" encoding="utf-8"?>
<!-- Generator: Adobe Illustrator 24.2.1, SVG Export Plug-In . SVG Version: 6.00 Build 0)  -->
<svg version="1.1" id="Layer_1" xmlns="http://www.w3.org/2000/svg" xmlns:xlink="http://www.w3.org/1999/xlink" x="0px" y="0px"
	 viewBox="0 0 64 64" style="enable-background:new 0 0 64 64;" xml:space="preserve">
<style type="text/css">
	.st0{fill:#FFFFFF;}
</style>
<path class="st0" d="M62.9,57.6L50.6,45.3c9.5-12.4,7.1-30.2-5.3-39.7S15.1-1.5,5.6,10.9s-7.1,30.2,5.3,39.7
	c10.1,7.7,24.2,7.7,34.4,0l12.3,12.3c1.5,1.4,3.9,1.4,5.3-0.1C64.3,61.3,64.3,59,62.9,57.6z M28.2,48.9c-11.4,0-20.7-9.3-20.7-20.7
	S16.8,7.5,28.2,7.5s20.7,9.3,20.7,20.7C48.8,39.6,39.6,48.8,28.2,48.9z"/>
</svg>
