<svg viewBox="0 0 126 7" xmlns="http://www.w3.org/2000/svg"><g fill="#fff"><path d="m.08 6.76v-6.36h.92v6.36z"/><path d="m9.06.4v6.36h-1.14l-4.36-6.36h1.14l3.42 5.06v-5.06zm-5.5 3.54h.95v2.82h-.95z"/><path d="m15.83.4v.78h-4.22v-.78zm-.59 2.77v.83h-2.69v2.76h-.94v-3.59z"/><path d="m18.38 6.76v-6.36h.94v6.36z"/><path d="m27.36.4v6.36h-1.13l-4.37-6.36h1.14l3.42 5.06v-5.06zm-5.5 3.54h.95v2.82h-.95z"/><path d="m29.91 6.76v-6.36h.94v6.36z"/><path d="m34.34 1.18v5.58h-1v-6.36h2.96v.78z"/><path d="m43.08.4v.78h-4.23v-.78zm-.6 3.45h-3.63v-.79h3.63zm-3.63 2.15h4.23v.78h-4.23z"/><path d="m53.36 4.3a1.45 1.45 0 0 0 1.31-1.56 1.45 1.45 0 0 0 -1.31-1.56h-2.46v-.78h2.48a2.3 2.3 0 0 1 2.24 2.34 2.3 2.3 0 0 1 -2.24 2.34h-1.53v1.68h-1v-2.46z"/><path d="m61.4 6.76a3.22 3.22 0 0 1 -3.24-3.26 3.24 3.24 0 1 1 6.47 0 3.22 3.22 0 0 1 -3.23 3.26zm0-.78a2.38 2.38 0 0 0 2.29-2.48 2.3 2.3 0 1 0 -4.58 0 2.39 2.39 0 0 0 2.29 2.5z"/><path d="m71.57 5.58a2.33 2.33 0 0 1 -2.23 1.18v-.76a1.33 1.33 0 0 0 1.34-.7.93.93 0 0 0 0-.66c-.18-.5-.67-.61-1.37-.82s-1.69-.43-2-1.26a1.65 1.65 0 0 1 .1-1.34 2.2 2.2 0 0 1 1.89-1 3.13 3.13 0 0 1 2.39 1.08l-.62.62a2.15 2.15 0 0 0 -1.74-.92 1.26 1.26 0 0 0 -1 .54.93.93 0 0 0 -.06.71c.17.47.65.58 1.33.78s1.72.44 2 1.29a1.77 1.77 0 0 1 -.03 1.26z"/><path d="m78.76 5.58a2.32 2.32 0 0 1 -2.23 1.18v-.76a1.33 1.33 0 0 0 1.35-.7 1 1 0 0 0 0-.66c-.17-.5-.67-.61-1.36-.82s-1.7-.43-2-1.26a1.65 1.65 0 0 1 .11-1.34 2.19 2.19 0 0 1 1.89-1 3.16 3.16 0 0 1 2.37 1.08l-.62.62a2.18 2.18 0 0 0 -1.74-.92 1.27 1.27 0 0 0 -1 .54.92.92 0 0 0 0 .71c.16.47.65.58 1.33.78s1.71.44 2 1.29a1.71 1.71 0 0 1 -.1 1.26z"/><path d="m81.57 6.76v-6.36h.94v6.36z"/><path d="m87.57 2.86c.32 0 .57-.41.57-.85s-.27-.83-.6-.83h-2.49v-.78h2.52a1.58 1.58 0 0 1 1.55 1.6 1.67 1.67 0 0 1 -.49 1.18 2 2 0 0 1 .83 1.62 1.91 1.91 0 0 1 -1.89 2h-2.52v-.8h2.52a1.07 1.07 0 0 0 1-1.17 1.09 1.09 0 0 0 -.9-1.17h-2.62v-.8z"/><path d="m92 6.76v-6.36h1v6.36z"/><path d="m99.65 6.76h-4.15v-6.36h.94v5.6h3.21z"/><path d="m102.2 6.76v-6.36h.94v6.36z"/><path d="m106.63 1.18v5.58h-.95v-6.36h2.91v.78z"/><path d="m111.14 6.76v-6.36h.94v6.36z"/><path d="m118.86.4v.78h-4.24v-.78zm-.6 3.45h-3.64v-.79h3.64zm-3.64 2.15h4.24v.78h-4.24z"/><path d="m125.79 5.58a2.31 2.31 0 0 1 -2.23 1.18v-.76a1.33 1.33 0 0 0 1.35-.7 1.07 1.07 0 0 0 0-.66c-.18-.5-.67-.61-1.37-.82s-1.7-.43-2-1.26a1.61 1.61 0 0 1 .1-1.34 2.2 2.2 0 0 1 1.89-1 3.16 3.16 0 0 1 2.36 1.06l-.62.62a2.18 2.18 0 0 0 -1.74-.9 1.24 1.24 0 0 0 -1 .54.93.93 0 0 0 -.06.71c.17.47.65.58 1.33.78s1.71.44 2 1.29a1.8 1.8 0 0 1 -.01 1.26z"/></g></svg>