<svg id="Layer_1" data-name="Layer 1" xmlns="http://www.w3.org/2000/svg" viewBox="0 0 64 64"><path d="M61.3,15C57.14,8,52.19,4.18,46.57,3.7c-6.84-.6-12.54,4-15,6.35-3-2.4-10.22-7.34-17.61-5.94-5.1,1-9.19,4.69-12.16,11.07C-8.54,37.38,29.14,59,30.75,59.86l.89.49.9-.46c1.05-.54,25.91-13.49,30.67-30A18.29,18.29,0,0,0,61.3,15ZM59.6,28.86C55.77,42.14,36.18,53.6,31.72,56.06,26.21,52.74-2.89,34.15,5.2,16.76c2.43-5.21,5.61-8.22,9.44-9a11,11,0,0,1,2-.18c6.93,0,13.69,6.31,13.76,6.38l1.44,1.36,1.29-1.5c.06-.07,6.06-7.06,13.16-6.41,4.33.38,8.29,3.57,11.79,9.48A14.49,14.49,0,0,1,59.6,28.86Z"/></svg>