<svg id="Layer_1" data-name="Layer 1" xmlns="http://www.w3.org/2000/svg" viewBox="0 0 64 64"><path d="M51.51,38.56,64,12.22H18a1.85,1.85,0,0,0,0,3.7h6.08l3.15,18.94H19.14L8.54,6.35H1.85a1.85,1.85,0,0,0,0,3.7H6L16.57,38.56Zm-4.4-22.64h11l-9,18.94h-5.5Zm-3.76,0L39.91,34.86H31L27.81,15.92Z"/><path d="M23.12,44.48a6.6,6.6,0,0,0-5.06.75,6.69,6.69,0,1,0,9.17,2.29A6.63,6.63,0,0,0,23.12,44.48Zm-1.62,9.6A3.12,3.12,0,1,1,24.62,51,3.12,3.12,0,0,1,21.5,54.08Z"/><path d="M41.92,45.23a6.69,6.69,0,0,0,3.46,12.42,6.6,6.6,0,0,0,3.43-1,6.69,6.69,0,1,0-6.89-11.46Zm3.45,8.85A3.12,3.12,0,1,1,48.48,51,3.12,3.12,0,0,1,45.37,54.08Z"/></svg>