<svg id="Layer_1" data-name="Layer 1" xmlns="http://www.w3.org/2000/svg" viewBox="0 0 279.86 77.84"><defs><style>.cls-1{fill:#10ade4;}.cls-2{fill:#1c3a54;}</style></defs><path class="cls-1" d="M55.38,37.05c0-.47-.1-.92-.15-1.38s-.18-.92-.27-1.37-.26-.9-.44-1.34a10.78,10.78,0,0,0-3.26-4.57c-5.33-4.41-14-4.61-14-4.61h0a4.64,4.64,0,0,0-3.59.23c-2.42,1-4.18,3.06-3.84,4.62a1.63,1.63,0,0,0-.43.27,1.41,1.41,0,0,0-.45,1,1.11,1.11,0,0,1-.07.43c0,.12-.15.14-.32.13s-.71-.13-1,.12c.3-.2.63-.06.94,0a.9.9,0,0,0,.29,0,.47.47,0,0,0,.27-.18,1.66,1.66,0,0,0,.18-.53,1,1,0,0,1,.43-.68,1,1,0,0,1,.34-.14c.82,1.4,3.55,1.64,6,.62a4.92,4.92,0,0,0,2.59-2.08h0a16,16,0,0,1,7.14.21,4.75,4.75,0,0,1,.49.17,10.94,10.94,0,0,1,1.63.78l.11.06a9.79,9.79,0,0,1,4.87,8.26c.06,1.58-.18,4.61-2.63,6.37a13.85,13.85,0,0,1-3,1.34,53.35,53.35,0,0,1-9.69,1.76l-1,.12v-2c7-.54,12.52-4.58,13.23-8.86A.82.82,0,0,0,49,35H21a.81.81,0,0,0-.82.93c.7,4.28,6.25,8.32,13.23,8.86v2.51l-.72.16a8,8,0,0,0-2.34.91,2.85,2.85,0,0,0-.93.9,2.16,2.16,0,0,0-.32,1.26,3.11,3.11,0,0,0,.85,2.36A4.66,4.66,0,0,0,32.18,54c.4.09.81.16,1.21.21v4a3.72,3.72,0,0,0-2.9,2.5.24.24,0,0,0,.25.28h8.51a.25.25,0,0,0,.25-.28,3.74,3.74,0,0,0-2.9-2.5V54.37h3a7.1,7.1,0,0,1,2.39.35,1.19,1.19,0,0,1,.8.74,1.15,1.15,0,0,1-.42,1,4.15,4.15,0,0,1-2.11,1.08l0,.19a4.5,4.5,0,0,0,2.41-1c.08-.09.17-.16.25-.26l.22-.31c0-.13.1-.26.14-.4a2.36,2.36,0,0,0,0-.46,2.2,2.2,0,0,0-.17-.45,3,3,0,0,0-.27-.35,2.52,2.52,0,0,0-.65-.43,7.51,7.51,0,0,0-2.64-.59l-2.47-.17-.54,0V48.54l1.18-.12a51.84,51.84,0,0,0,10.07-1.73,13.11,13.11,0,0,0,4.92-2.76,8.38,8.38,0,0,0,1.82-2.49,8.17,8.17,0,0,0,.77-2.94A11.72,11.72,0,0,0,55.38,37.05ZM33.39,53q-.47-.09-.9-.21a3.51,3.51,0,0,1-1.56-.86,1.71,1.71,0,0,1-.34-1.36.77.77,0,0,1,0-.29.36.36,0,0,1,.1-.15,1.35,1.35,0,0,1,.46-.37,7.07,7.07,0,0,1,1.89-.64l.31-.06Z"/><path class="cls-2" d="M74.77,27.42,64.13,10.75,48.26,20.88V2.05H28.48V20.88L12.61,10.75,2,27.42l18,11.5L2,50.43,12.61,67.1,28.48,57V75.8H48.26V57L64.13,67.1,74.77,50.43l-18-11.51ZM55.36,38.5a8.17,8.17,0,0,1-.77,2.94,8.38,8.38,0,0,1-1.82,2.49,13.11,13.11,0,0,1-4.92,2.76,51.84,51.84,0,0,1-10.07,1.73l-1.18.12v4.78l.54,0,2.47.17a7.51,7.51,0,0,1,2.64.59,2.52,2.52,0,0,1,.65.43,3,3,0,0,1,.27.35,2.2,2.2,0,0,1,.17.45,2.36,2.36,0,0,1,0,.46c0,.14-.09.27-.14.4l-.22.31c-.08.1-.17.17-.25.26a4.5,4.5,0,0,1-2.41,1l0-.19a4.15,4.15,0,0,0,2.11-1.08,1.15,1.15,0,0,0,.42-1,1.19,1.19,0,0,0-.8-.74,7.1,7.1,0,0,0-2.39-.35h-3v3.85a3.74,3.74,0,0,1,2.9,2.5.25.25,0,0,1-.25.28H30.74a.24.24,0,0,1-.25-.28,3.72,3.72,0,0,1,2.9-2.5v-4c-.4-.05-.81-.12-1.21-.21a4.66,4.66,0,0,1-2.25-1.12,3.11,3.11,0,0,1-.85-2.36,2.16,2.16,0,0,1,.32-1.26,2.85,2.85,0,0,1,.93-.9,8,8,0,0,1,2.34-.91l.72-.16V44.77c-7-.54-12.53-4.58-13.23-8.86A.81.81,0,0,1,21,35H49a.82.82,0,0,1,.82.93c-.71,4.28-6.25,8.32-13.23,8.86v2l1-.12a53.35,53.35,0,0,0,9.69-1.76,13.85,13.85,0,0,0,3-1.34c2.45-1.76,2.69-4.79,2.63-6.37A9.79,9.79,0,0,0,48,28.9l-.11-.06a10.94,10.94,0,0,0-1.63-.78,4.75,4.75,0,0,0-.49-.17,16,16,0,0,0-7.14-.21h0A4.92,4.92,0,0,1,36,29.76c-2.45,1-5.18.78-6-.62a1,1,0,0,0-.34.14,1,1,0,0,0-.43.68,1.66,1.66,0,0,1-.18.53.47.47,0,0,1-.27.18.9.9,0,0,1-.29,0c-.32-.1-.64-.24-.94,0,.26-.25.67-.17,1-.12s.28,0,.32-.13a1.11,1.11,0,0,0,.07-.43,1.41,1.41,0,0,1,.45-1,1.63,1.63,0,0,1,.43-.27C29.46,27.07,31.22,25,33.64,24a4.64,4.64,0,0,1,3.59-.23h0s8.7.2,14,4.61A10.78,10.78,0,0,1,54.52,33c.18.44.29.89.44,1.34s.2.91.27,1.37.12.91.15,1.38A11.72,11.72,0,0,1,55.36,38.5Z"/><path class="cls-2" d="M31.19,49.71a1.35,1.35,0,0,0-.46.37.36.36,0,0,0-.1.15.77.77,0,0,0,0,.29,1.71,1.71,0,0,0,.34,1.36,3.41,3.41,0,0,0,1.56.85,8.45,8.45,0,0,0,.9.22V49c-.1,0-.21,0-.31.06A7.07,7.07,0,0,0,31.19,49.71Z"/><path class="cls-2" d="M34.91,25.57a.57.57,0,1,0,0,1.13.57.57,0,0,0,0-1.13Z"/><path class="cls-1" d="M86.35,25.43H92l4.58,14c.38,1.18.72,2.25,1,3.19s.58,2,.89,3.2h.12q.45-1.48.93-3.18c.31-1.12.62-2.19.92-3.21l4.42-14h5.69l2.14,26h-4.29q-.33-4.12-.64-8.31t-.47-8.39L107.17,30h-.08c-.47,1.7-1,3.43-1.46,5.19s-1,3.45-1.59,5.07l-3.67,11.18H96.62L92.91,40.19c-.39-1.18-.72-2.25-1-3.21s-.55-1.85-.78-2.66-.45-1.58-.64-2.29-.37-1.4-.54-2.06h-.12c-.08,2.33-.21,4.71-.37,7.13s-.32,4.74-.46,7l-.49,7.34H84.29Z"/><path class="cls-1" d="M115.71,32h4.57l3.92,10.51,1.4,4.66h.09l1.36-4.7L130.59,32h4.33l-7.38,20.77a17.49,17.49,0,0,1-3.15,5.71,11.43,11.43,0,0,1-5,3.28l-1.82-3.34a10.53,10.53,0,0,0,3.59-2.24,8.92,8.92,0,0,0,2.27-3.82l.33-1Z"/><path class="cls-2" d="M138.34,51.41v-26h4.41V36.15h11.51V25.43h4.41v26h-4.41V39.78H142.75V51.41Z"/><path class="cls-2" d="M182.7,41.47a11.82,11.82,0,0,1-.76,4.37,9.45,9.45,0,0,1-2.08,3.26,9,9,0,0,1-3.09,2,10.52,10.52,0,0,1-3.84.7,10.74,10.74,0,0,1-3.81-.66,8.69,8.69,0,0,1-3.05-1.92,8.59,8.59,0,0,1-2-3.11,11.69,11.69,0,0,1-.72-4.25,11.63,11.63,0,0,1,.76-4.37,9.52,9.52,0,0,1,2.08-3.21,8.72,8.72,0,0,1,3.09-2,10.48,10.48,0,0,1,3.84-.68,11.2,11.2,0,0,1,3.81.63A8.74,8.74,0,0,1,180,34.13a8.35,8.35,0,0,1,2,3.09A11.72,11.72,0,0,1,182.7,41.47Zm-4.41.21a9.74,9.74,0,0,0-.45-3.16,6.1,6.1,0,0,0-1.2-2.12A4.46,4.46,0,0,0,175,35.2a5.32,5.32,0,0,0-2-.37,5.8,5.8,0,0,0-1.93.33,4.15,4.15,0,0,0-1.69,1.11,5.55,5.55,0,0,0-1.18,2.11,10.7,10.7,0,0,0-.43,3.3,9.71,9.71,0,0,0,.45,3.13,6.21,6.21,0,0,0,1.2,2.16,4.38,4.38,0,0,0,1.71,1.24,5.19,5.19,0,0,0,2,.39,5.8,5.8,0,0,0,1.93-.33,4.1,4.1,0,0,0,1.69-1.13A5.65,5.65,0,0,0,177.86,45,10.85,10.85,0,0,0,178.29,41.68Z"/><path class="cls-2" d="M198.16,35.9a12.84,12.84,0,0,0-2.45-.88,9.74,9.74,0,0,0-2.25-.27,4.41,4.41,0,0,0-2.61.64A2,2,0,0,0,190,37.1a1.85,1.85,0,0,0,.66,1.42,7.36,7.36,0,0,0,2.72,1.18l1.24.37a10.17,10.17,0,0,1,4.06,2.14A4.68,4.68,0,0,1,200,45.76,5.4,5.4,0,0,1,198,50.15a8.76,8.76,0,0,1-5.65,1.67,17.83,17.83,0,0,1-3.61-.35,14.18,14.18,0,0,1-3-1l1-3.22a14.69,14.69,0,0,0,2.56.95,10.45,10.45,0,0,0,2.8.37,5.13,5.13,0,0,0,2.76-.62,2.07,2.07,0,0,0,1-1.89,1.81,1.81,0,0,0-.88-1.71,14.13,14.13,0,0,0-2.74-1.1l-1.28-.37a9.4,9.4,0,0,1-3.86-2.18,4.82,4.82,0,0,1-1.26-3.47,4.92,4.92,0,0,1,.54-2.31,5.47,5.47,0,0,1,1.49-1.77A7,7,0,0,1,190.1,32a9.88,9.88,0,0,1,3-.41,17.46,17.46,0,0,1,3.11.28,13,13,0,0,1,3,.91Z"/><path class="cls-2" d="M212.55,51.82a8.67,8.67,0,0,1-2.39-.33,6.46,6.46,0,0,1-2-.91V60.89H204V31.7h3.42l.53,2.43a11.23,11.23,0,0,1,2.6-1.79,7.4,7.4,0,0,1,3.34-.72,7.71,7.71,0,0,1,6.1,2.51c1.49,1.68,2.23,4,2.23,7.13a12.39,12.39,0,0,1-.81,4.68,9.34,9.34,0,0,1-2.14,3.3,8.61,8.61,0,0,1-3.09,1.94A10.6,10.6,0,0,1,212.55,51.82ZM212.84,35a5.09,5.09,0,0,0-2.78.77,7.5,7.5,0,0,0-1.88,1.59v10a6.31,6.31,0,0,0,5.94.91A4.83,4.83,0,0,0,216,47a6.19,6.19,0,0,0,1.32-2.24,10,10,0,0,0,.5-3.36,8.08,8.08,0,0,0-1.22-4.68A4.23,4.23,0,0,0,212.84,35Z"/><path class="cls-2" d="M229,27.12a2.39,2.39,0,1,1,1.75-4.1,2.52,2.52,0,0,1,0,3.44A2.39,2.39,0,0,1,229,27.12Zm-2.14,24.29V32h4.24V51.41Z"/><path class="cls-2" d="M247.68,35.08h-5.53V45.59a2.29,2.29,0,0,0,.68,1.94,3.09,3.09,0,0,0,1.84.49,9.2,9.2,0,0,0,1.75-.18,12.28,12.28,0,0,0,1.63-.43l.66,3.13a12.92,12.92,0,0,1-2.13.6,13.4,13.4,0,0,1-2.74.27c-2.09,0-3.59-.44-4.51-1.3A5.06,5.06,0,0,1,238,46.25V35.08h-3V32h3V25.8h4.2V32h5.53Z"/><path class="cls-2" d="M252.46,33.68a18.29,18.29,0,0,1,3.65-1.55,13.88,13.88,0,0,1,3.89-.51,11.54,11.54,0,0,1,3,.37,6,6,0,0,1,2.37,1.19A5.48,5.48,0,0,1,267,35.39a9,9,0,0,1,.56,3.36V51.41h-3.42l-.46-2.11h-.12a6.86,6.86,0,0,1-2.68,1.92,9.2,9.2,0,0,1-3.38.6,6.88,6.88,0,0,1-4.72-1.57,5.23,5.23,0,0,1-1.8-4.16,5.64,5.64,0,0,1,.66-2.79,5.58,5.58,0,0,1,1.86-1.95,8.7,8.7,0,0,1,2.84-1.18,15.78,15.78,0,0,1,3.63-.39h3.3V38.29a3,3,0,0,0-1-2.57,4.55,4.55,0,0,0-2.72-.72,9.28,9.28,0,0,0-2.41.35,13.18,13.18,0,0,0-3.07,1.3Zm10.8,8.9-2.6,0a7.18,7.18,0,0,0-4.12,1,2.79,2.79,0,0,0-1.19,2.23,3,3,0,0,0,.26,1.36,2.37,2.37,0,0,0,.72.87,2.91,2.91,0,0,0,1.06.47,4.89,4.89,0,0,0,1.21.15,5.66,5.66,0,0,0,2.54-.64,5.92,5.92,0,0,0,2.12-1.84Z"/><path class="cls-2" d="M273.2,51.41V22.09h4.16V51.41Z"/></svg>